<svg id="eUQ0JNZCjre1" xmlns="http://www.w3.org/2000/svg" xmlns:xlink="http://www.w3.org/1999/xlink" viewBox="0 0 34 35" shape-rendering="geometricPrecision" text-rendering="geometricPrecision"><ellipse rx="13.789707" ry="13.962078" transform="translate(17.560207 18.012804)" fill="#f53838" stroke-width="0"/><path d="M22.25,17.3806c0,1.3924-.5532,2.7277-1.5377,3.7123s-2.32,1.5377-3.7123,1.5377c-1.3924,0-2.7278-.5532-3.7124-1.5377-.9845-.9846-1.5376-2.3199-1.5376-3.7123c0-.2993.0315-.5915.0857-.875h-1.83575v6.9947c0,.4865.39375.8803.88025.8803h12.2413c.2331-.0005.4566-.0934.6213-.2585s.2572-.3886.2572-.6218v-6.9947h-1.8358c.0543.2835.0858.5757.0858.875Zm-5.25,3.5c.4597-.0001.9149-.0908,1.3396-.2669s.8106-.434,1.1356-.7591c.325-.3252.5828-.7112.7586-1.136s.2663-.88.2662-1.3398c-.0002-.4597-.0908-.9149-.2669-1.3396s-.434-.8106-.7591-1.1356-.7112-.5828-1.136-.7586-.8801-.2663-1.3398-.2662c-.9285.0003-1.8189.3693-2.4752,1.026s-1.025,1.5473-1.0248,2.4758.3693,1.8188,1.026,2.4752s1.5473,1.025,2.4758,1.0248Zm4.2-7.175h2.0982c.1394,0,.2731-.0553.3719-.1537.0987-.0984.1544-.2319.1549-.3713v-2.0983c0-.1397-.0555-.2737-.1543-.3725-.0988-.0987-.2328-.1542-.3725-.1542h-2.0982c-.1397,0-.2737.0555-.3725.1542-.0988.0988-.1543.2328-.1543.3725v2.0983c.0018.2887.238.525.5268.525ZM17,0.580566c-4.4557,0-8.72883,1.769994-11.87944,4.920604s-4.920609,7.42373-4.920609,11.87943s1.769999,8.7288,4.920609,11.8794s7.42374,4.9206,11.87944,4.9206c2.2062,0,4.3908-.4346,6.429-1.2789c2.0383-.8442,3.8903-2.0817,5.4504-3.6417c1.56-1.5601,2.7975-3.4121,3.6417-5.4503.8443-2.0383,1.2789-4.2229,1.2789-6.4291s-.4346-4.3908-1.2789-6.4291c-.8442-2.03828-2.0817-3.8903-3.6417-5.45033-1.5601-1.56002-3.4121-2.7975-5.4504-3.64178C21.3908,1.01511,19.2062,0.580566,17,0.580566ZM25.75,24.1863c0,1.0693-.875,1.9443-1.9443,1.9443h-13.6115c-1.06925,0-1.94425-.875-1.94425-1.9443v-13.6115c0-1.06923.875-1.94423,1.94425-1.94423h13.6115c1.0693,0,1.9443.875,1.9443,1.94423v13.6115Z" fill="#fff"/></svg>
