<svg width="185" height="185" viewBox="0 0 185 185" fill="none" xmlns="http://www.w3.org/2000/svg">
<path opacity="0.7" d="M148.986 91.6462C148.816 123.148 123.141 148.826 91.639 148.999C60.1372 149.172 34.7376 123.775 34.9074 92.2728C35.0772 60.7709 60.7521 35.0934 92.254 34.9203C123.756 34.7473 149.155 60.1443 148.986 91.6462ZM43.4633 92.2258C43.3189 119.002 64.9086 140.59 91.6852 140.443C118.462 140.296 140.285 118.47 140.43 91.6932C140.574 64.9166 118.984 43.3291 92.2078 43.4762C65.4313 43.6233 43.6076 65.4492 43.4633 92.2258Z" fill="white"/>
<path d="M92.7215 165.372C92.7102 167.472 90.9971 169.194 88.9001 169.1C73.174 168.4 58.0706 162.827 45.7056 153.106C32.3472 142.604 22.9628 127.871 19.0644 111.282C15.1661 94.6936 16.9809 77.2145 24.2163 61.6616C31.4518 46.1087 43.6866 33.3879 58.9493 25.5489C74.2119 17.7099 91.6135 15.2092 108.35 18.4499C125.087 21.6905 140.183 30.4837 151.208 43.4126C162.232 56.3415 168.542 72.6531 169.121 89.719C169.656 105.516 165.252 121.108 156.572 134.344C155.414 136.108 153.026 136.493 151.333 135.268C149.641 134.043 149.287 131.672 150.434 129.901C158.109 118.058 161.997 104.149 161.52 90.0593C160.999 74.7 155.32 60.0196 145.398 48.3836C135.476 36.7476 121.889 28.8337 106.826 25.9171C91.7633 23.0005 76.1018 25.2511 62.3654 32.3062C48.6291 39.3613 37.6177 50.8101 31.1058 64.8077C24.5939 78.8053 22.9606 94.5365 26.4691 109.466C29.9776 124.396 38.4236 137.656 50.4461 147.108C61.4751 155.778 74.9248 160.782 88.9416 161.485C91.0379 161.59 92.7328 163.272 92.7215 165.372Z" fill="#20C1CF"/>
<path d="M91.9206 179.703C91.907 182.24 89.8373 184.321 87.3035 184.208C73.1768 183.578 59.3994 179.692 47.0565 172.827C33.3793 165.22 21.9211 154.209 13.7779 140.847C5.63468 127.486 1.07889 112.221 0.546284 96.5133C0.0136767 80.8054 3.52207 65.1797 10.7359 51.1308C17.9497 37.0819 28.6276 25.0798 41.7482 16.2725C54.8689 7.46522 69.9934 2.14738 85.675 0.827634C101.357 -0.492109 117.071 2.2304 131.314 8.73474C144.168 14.6045 155.437 23.377 164.255 34.3445C165.837 36.3116 165.357 39.1958 163.296 40.6986C161.235 42.2015 158.374 41.7529 156.781 39.7947C148.888 30.0898 138.852 22.3206 127.422 17.1014C114.603 11.2475 100.46 8.79722 86.3466 9.98498C72.2331 11.1728 58.6211 15.9588 46.8125 23.8854C35.004 31.8119 25.3938 42.6138 18.9014 55.2578C12.409 67.9018 9.25143 81.965 9.73078 96.1021C10.2101 110.239 14.3103 123.977 21.6392 136.003C28.9681 148.028 39.2805 157.938 51.59 164.784C62.5649 170.889 74.8001 174.376 87.3535 175.006C89.8864 175.133 91.9343 177.165 91.9206 179.703Z" fill="#535FE6"/>
</svg>
