<svg width="152" height="92" viewBox="0 0 152 92" fill="none" xmlns="http://www.w3.org/2000/svg">
<g id="fa-brands:aws" clip-path="url(#clip0_2986_9656)">
<path id="Vector" d="M42.7331 33.3703C42.5615 38.7687 45.2592 41.1593 45.326 42.6775C45.2942 42.9865 45.1889 43.2835 45.0189 43.5434C44.8489 43.8034 44.6192 44.0189 44.3489 44.1719L41.2984 46.3075C40.9036 46.5843 40.4383 46.743 39.9567 46.7651C39.8542 46.7603 38.0048 47.2013 35.0759 40.6612C33.289 42.892 31.0153 44.6843 28.4291 45.9009C25.8428 47.1175 23.0125 47.7262 20.1548 47.6803C16.275 47.8925 5.76044 45.4781 6.30142 34.2831C5.9225 25.1594 14.4185 19.4916 23.2053 19.9707C24.8974 19.9755 28.353 20.0589 34.4039 21.4651V17.7422C35.0449 11.4357 30.9006 6.54252 23.7248 7.27661C23.1529 7.27899 19.1015 7.15744 12.8003 9.68625C11.0463 10.4918 10.8223 10.3584 10.2384 10.3584C8.4725 10.3584 9.19937 5.23879 9.53778 4.5905C10.7794 3.06511 18.0839 0.216922 25.2524 0.25744C30.0456 -0.166505 34.8131 1.31294 38.5244 4.37599C40.033 6.06365 41.1839 8.0396 41.9077 10.1845C42.6315 12.3294 42.9131 14.5988 42.7354 16.8556L42.7331 33.3703ZM22.1376 41.0902C29.8663 40.9782 33.1384 36.3305 33.8843 33.8279C34.4706 31.4326 34.3729 29.9167 34.3729 27.2973C32.0683 26.7444 28.751 26.1414 24.945 26.1366C21.3345 25.8649 14.7403 27.4785 14.9976 33.8255C14.7021 37.8273 17.6477 41.3095 22.1376 41.0902ZM62.8709 46.584C60.9977 46.7556 60.1255 45.4256 59.849 44.1124L47.9808 4.86936C47.7496 4.20677 47.5971 3.52272 47.5232 2.82438C47.4795 2.53647 47.5518 2.24296 47.7243 2.00833C47.8967 1.7737 48.1553 1.61716 48.4431 1.57309C48.5003 1.56355 47.9355 1.57309 53.7457 1.57309C55.8381 1.36335 56.5197 3.01029 56.7366 4.04469L65.2493 37.6104L73.1519 4.04469C73.2782 3.27723 73.8526 1.40625 76.2024 1.60407H80.2919C80.8091 1.56117 82.9396 1.4849 83.3138 4.07568L91.2784 38.0704L100.065 4.07568C100.18 3.55609 100.713 1.36573 103.087 1.60407H107.787C107.989 1.57309 109.252 1.41101 109.038 3.64905C108.935 4.08998 109.85 1.10832 96.4666 44.1433C96.1925 45.4566 95.3179 46.7866 93.4447 46.6149H88.9905C86.3833 46.889 86.0092 44.3126 85.9687 44.0528L78.066 11.3689L70.254 44.0194C70.2159 44.2792 69.8417 46.8557 67.2321 46.5816H62.8709V46.584ZM128.046 47.9258C126.645 47.9282 119.962 47.8543 114.376 44.9966C113.82 44.761 113.346 44.3654 113.014 43.86C112.683 43.3547 112.509 42.7623 112.515 42.158V39.5958C112.515 37.5818 113.992 37.9512 114.619 38.1919C117.012 39.1596 118.547 39.8937 121.485 40.48C130.219 42.2747 134.061 39.9318 135.003 39.4123C138.136 37.5508 138.384 33.2916 136.254 31.0822C133.756 28.9872 132.565 28.9085 123.592 26.077C122.486 25.7696 113.177 22.8332 113.156 13.5974C113.011 6.86666 119.126 0.207388 129.724 0.262206C132.743 0.259823 140.789 1.24656 142.967 3.98511C143.289 4.48324 143.449 5.06956 143.425 5.66304V8.07267C143.425 9.13091 143.039 9.66003 142.264 9.66003C140.427 9.45506 137.166 6.99775 130.548 7.09785C128.906 7.01205 121.042 7.31475 121.395 13.0493C121.292 17.5682 127.736 19.2628 128.473 19.4583C137.162 22.0729 140.067 22.5067 143.515 26.5084C147.6 31.8115 145.398 38.0203 144.552 39.7221C140.005 48.6575 128.246 47.9306 128.046 47.9258ZM137.626 72.9184C120.937 85.2454 96.7096 91.807 76.0237 91.807C48.112 91.9911 21.141 81.7268 0.412592 63.0319C-1.14362 61.6281 0.229087 59.7047 2.12133 60.7748C25.1153 73.9293 51.1493 80.8411 77.6395 80.8242C97.4216 80.7181 116.988 76.7046 135.215 69.0143C138.022 67.8226 140.403 70.8734 137.626 72.9184ZM144.583 64.984C142.448 62.2383 130.455 63.7017 125.086 64.3428C123.468 64.5264 123.194 63.1225 124.66 62.0857C134.209 55.3716 149.893 57.2951 151.694 59.5522C153.494 61.8092 151.206 77.5255 142.266 85.0333C140.894 86.194 139.581 85.5815 140.191 84.0561C142.202 78.9913 146.718 67.7321 144.583 64.984Z" fill="#737373"/>
</g>
<defs>
<clipPath id="clip0_2986_9656">
<rect width="153" height="92" fill="white" transform="translate(-0.5)"/>
</clipPath>
</defs>
</svg>
