<svg width="150" height="50" viewBox="0 0 150 50" fill="none" xmlns="http://www.w3.org/2000/svg">
<g id="fa-brands:hooli" clip-path="url(#clip0_2986_9644)">
<path id="Vector" d="M34.142 46.9484L43.0587 47.1361C39.9856 46.0563 37.0056 44.7418 34.142 43.1925V46.9484ZM47.5752 45.7042V46.9484L43.0587 47.1361C51.5563 50.0704 59.3323 50.4695 65.106 48.8263C60.473 48.8732 54.4432 48.216 47.5752 45.7042ZM142.772 18.662C146.474 18.662 149.501 15.6338 149.501 11.8779C149.501 8.12206 146.497 6.12675 142.772 6.12675C139.071 6.12675 136.044 8.14553 136.044 11.8779C136.044 15.6103 139.047 18.662 142.772 18.662ZM136.021 46.9484H149.501V21.0094H136.021V46.9484ZM118.862 46.9484H132.342V1.10328L118.862 7.51173V46.9484ZM111.645 18.9202C107.408 14.6479 99.9115 14.9061 99.9115 14.9061C99.9115 14.9061 92.3916 14.6479 88.1777 18.9202C83.9405 23.1925 84.2665 26.8779 84.2665 31.2676C84.2665 35.6573 83.9405 39.3192 88.1777 43.5915C92.4149 47.8638 99.9115 47.6056 99.9115 47.6056C99.9115 47.6056 107.431 47.8638 111.645 43.5915C115.882 39.3192 115.556 35.6573 115.556 31.2676C115.533 26.8545 115.859 23.169 111.645 18.9202ZM102.379 35.7981C102.379 36.6432 101.96 38.7324 99.8882 38.7324C97.8162 38.7324 97.3971 36.6432 97.3971 35.7981V26.3146C97.3971 24.2723 99.0966 23.7559 99.8882 23.7559C100.68 23.7559 102.379 24.2488 102.379 26.3146V35.7981ZM77.6546 18.9202C73.4174 14.6479 65.9209 14.9061 65.9209 14.9061C65.9209 14.9061 58.4243 14.6479 54.1871 18.9202C53.7448 19.3662 53.3257 19.8357 52.9532 20.3286C44.0598 13.3803 36.0743 9.41314 29.1831 5.98591V1.12675L23.9448 3.61501C11.2798 -1.57278 3.22446 -0.657287 1.29212 3.63849C1.29212 3.63849 -4.50491 11.338 15.6799 29.6479V46.9484H29.1598V40.2347C27.6465 39.2488 26.1332 38.1925 24.6432 37.0422C21.1976 34.4131 18.2641 31.9718 15.7032 29.6714V22.3944C18.7531 25.8451 22.804 29.7653 28.1354 34.2019L29.1831 35.0469V28.0516C29.1831 26.4319 29.5788 23.7793 31.6974 23.7793C33.816 23.7793 34.1652 25.3991 34.1652 27.3005V38.7324C38.3559 41.5962 42.8491 43.9202 47.5985 45.6807V23.6385C47.5985 19.2488 44.4788 14.8591 38.1463 14.8591C34.4679 14.8357 31.0456 16.784 29.1831 20V7.25351C38.9379 12.1596 48.716 18.169 52.441 20.939C50.0663 24.3662 50.2759 27.5352 50.2759 31.1972C50.2759 35.5868 49.9499 39.2488 54.1871 43.5211C58.4243 47.7934 65.9209 47.5352 65.9209 47.5352C65.9209 47.5352 73.4407 47.7934 77.6546 43.5211C81.8918 39.2488 81.5426 35.5868 81.5426 31.1972C81.5426 26.8545 81.8918 23.169 77.6546 18.9202ZM15.6799 7.51173V22.3709C4.34196 9.57746 6.62353 4.53051 7.48493 3.80281C10.6279 1.12675 16.2154 1.92487 22.4781 4.29577L15.6799 7.51173ZM68.412 35.7981C68.412 36.6432 67.9929 38.7324 65.9209 38.7324C63.8488 38.7324 63.4298 36.6432 63.4298 35.7981V26.3146C63.4298 24.2723 65.1293 23.7559 65.9209 23.7559C66.7124 23.7559 68.412 24.2488 68.412 26.3146V35.7981Z" fill="#737373"/>
</g>
<defs>
<clipPath id="clip0_2986_9644">
<rect width="149" height="50" fill="white" transform="translate(0.5)"/>
</clipPath>
</defs>
</svg>
