<!-- Generated by IcoMoon.io -->
<svg version="1.1" xmlns="http://www.w3.org/2000/svg" width="1024" height="1024" viewBox="0 0 1024 1024">
<title>facebook</title>
<g id="icomoon-ignore">
</g>
<path d="M873.997 0h-723.997c-82.7 0-150 67.3-150 150v723.997c0 82.72 67.3 150.003 150 150.003h723.997c82.72 0 150.003-67.283 150.003-150.003v-723.997c0-82.7-67.283-150-150.003-150zM964 873.997c0 49.626-40.378 90.003-90.003 90.003h-723.997c-49.62 0-90-40.378-90-90.003v-723.997c0-49.62 40.38-90 90-90h723.997c49.626 0 90.003 40.38 90.003 90v723.997z"></path>
<path d="M841.997 122c-33.075 0-59.994 26.92-59.994 60s26.918 60 59.994 60c33.082 0 60.006-26.92 60.006-60s-26.925-60-60.006-60z"></path>
<path d="M512 242c-148.88 0-270 121.12-270 270 0 148.883 121.12 270.003 270 270.003 148.883 0 270.003-121.12 270.003-270.003 0-148.88-121.12-270-270.003-270zM512 721.997c-115.8 0-210-94.197-210-209.997s94.2-210 210-210c115.8 0 209.997 94.2 209.997 210s-94.197 209.997-209.997 209.997z"></path>
</svg>
