<svg width="140" height="99" viewBox="0 0 140 99" fill="none" xmlns="http://www.w3.org/2000/svg">
<g id="fa-brands:lyft" clip-path="url(#clip0_2986_9647)">
<path id="Vector" d="M0.5 1.67H21.6215V58.7454C21.6215 67.7976 25.6938 73.1852 29.0059 75.4277C25.558 78.4634 15.1059 81.1435 7.23281 74.662C2.61758 70.8333 0.5 64.4612 0.5 58.5266V1.67ZM132.414 49.1189V43.1023H138.876V22.099H131.79C129.048 9.43685 117.89 0.0291138 104.56 0.0291138C89.1939 0.0291138 76.6785 12.6092 76.6785 28.1156V77.1233C81.0223 77.7523 86.2891 77.0413 90.7143 73.2946C95.3566 69.4659 97.4471 63.1211 97.4471 57.1592V55.3269H107.981V34.3236H97.4471V27.9515C97.4471 18.4891 111.619 18.4891 111.619 27.9515V49.0368C111.619 64.5159 124.107 77.1233 139.5 77.1233V56.202C135.563 56.202 132.414 53.0023 132.414 49.1189ZM52.5164 22.0443V52.9476C52.5164 57.1592 46.0551 57.1592 46.0551 52.9476V22.0443H25.2051V58.3352C25.2051 64.844 27.377 73.1031 37.4219 75.8106C47.4668 78.4907 53.2223 72.9117 53.2223 72.9117C52.6521 76.5763 49.2857 79.2838 43.7475 79.8308C39.5395 80.2683 34.1912 78.8462 31.5307 77.6976V96.9233C38.3449 98.9744 45.5121 99.6034 52.5979 98.2087C65.3848 95.72 73.4479 84.9722 73.4479 70.6418V21.9076H52.5164V22.0443Z" fill="#737373"/>
</g>
<defs>
<clipPath id="clip0_2986_9647">
<rect width="139" height="99" fill="white" transform="translate(0.5)"/>
</clipPath>
</defs>
</svg>
