<svg width="150" height="109" viewBox="0 0 150 109" fill="none" xmlns="http://www.w3.org/2000/svg">
<g id="fa-brands:pied-piper-hat" clip-path="url(#clip0_2986_9650)">
<path id="Vector" d="M149.5 0.211853C130.689 12.8304 128.687 21.9883 127.057 24.7898C125.497 27.662 124.333 38.9857 121.632 44.471C118.908 50.027 109.014 54.4058 106.243 56.2421C103.52 58.0784 99.6548 65.2116 96.4886 71.3561C71.3216 70.3203 57.5158 80.4905 36.1436 93.3915C42.9883 91.108 46.2244 89.46 46.2244 89.46C68.1553 80.9848 78.6552 73.3807 111.668 77.8773C111.924 77.8773 112.11 78.0185 112.32 78.0656C113.228 78.5836 113.554 79.69 113.042 80.6082L100.493 103.162C99.9109 104.268 98.677 104.857 97.4431 104.598C67.9225 98.9946 44.618 108.67 23.1992 108.976C6.11078 109.235 0.5 101.09 0.5 100.713C0.5 100.454 0.639688 100.313 0.895781 100.313C0.895781 100.313 9.8125 100.313 24.8988 96.711C42.0337 63.6814 57.3062 52.1222 73.9291 52.1222C73.9291 52.1222 90.6217 52.1222 95.0219 66.6948C100.33 57.3486 101.61 55.1121 101.61 55.1121C102.844 52.8991 109.759 36.9375 121.725 21.8235C133.715 6.75656 142.772 3.01336 149.5 0.211853Z" fill="#737373"/>
</g>
<defs>
<clipPath id="clip0_2986_9650">
<rect width="149" height="109" fill="white" transform="translate(0.5)"/>
</clipPath>
</defs>
</svg>
