<svg width="150" height="142" viewBox="0 0 150 142" fill="none" xmlns="http://www.w3.org/2000/svg">
<g id="fa-brands:reddit-alien" clip-path="url(#clip0_2986_9659)">
<path id="Vector" d="M132.69 54.5545C127.995 54.5545 123.863 56.5153 120.827 59.583C109.652 51.7714 94.5953 46.7429 77.9111 46.2053L86.5819 6.73625L114.191 12.9982C114.191 19.8293 119.7 25.3955 126.461 25.3955C133.348 25.3955 138.888 19.6712 138.888 12.84C138.888 6.00885 133.379 0.284576 126.461 0.284576C121.641 0.284576 117.477 3.22578 115.411 7.24226L84.9228 0.41108C83.389 -5.61476e-05 81.8865 1.10685 81.4796 2.65651L71.9636 46.1737C55.4046 46.8694 40.5046 51.8979 29.2983 59.7095C26.2619 56.5153 21.9735 54.5545 17.2781 54.5545C-0.126108 54.5545 -5.82317 78.1474 10.1098 86.212C9.54637 88.7104 9.29595 91.367 9.29595 94.0235C9.29595 120.526 38.8455 142 75.1252 142C111.561 142 141.111 120.526 141.111 94.0235C141.111 91.367 140.829 88.5839 140.14 86.0855C155.76 77.9892 150.001 54.5545 132.69 54.5545ZM35.3709 87.8881C35.3709 80.9304 40.8802 75.3327 47.7981 75.3327C54.5594 75.3327 60.0686 80.8988 60.0686 87.8881C60.0686 94.7193 54.5594 100.285 47.7981 100.285C40.9115 100.317 35.3709 94.7193 35.3709 87.8881ZM102.452 117.458C91.0581 128.97 58.9104 128.97 47.5163 117.458C46.2642 116.351 46.2642 114.391 47.5163 113.126C48.6119 112.019 50.5527 112.019 51.6483 113.126C60.3504 122.139 89.2113 122.297 98.289 113.126C99.3846 112.019 101.325 112.019 102.421 113.126C103.704 114.391 103.704 116.351 102.452 117.458ZM102.202 100.317C95.4405 100.317 89.9312 94.7509 89.9312 87.9197C89.9312 80.9621 95.4405 75.3643 102.202 75.3643C109.088 75.3643 114.629 80.9304 114.629 87.9197C114.598 94.7193 109.088 100.317 102.202 100.317Z" fill="#737373"/>
</g>
<defs>
<clipPath id="clip0_2986_9659">
<rect width="149" height="142" fill="white" transform="translate(0.5)"/>
</clipPath>
</defs>
</svg>
