<!-- Generated by IcoMoon.io -->
<svg version="1.1" xmlns="http://www.w3.org/2000/svg" width="39" height="32" viewBox="0 0 39 32">
<title>twitter</title>
<path d="M39.385 3.788c-1.465 0.642-3.025 1.068-4.652 1.275 1.674-0.999 2.951-2.57 3.552-4.463-1.561 0.93-3.284 1.588-5.12 1.954-1.482-1.578-3.594-2.555-5.898-2.555-4.47 0-8.069 3.628-8.069 8.076 0 0.64 0.054 1.255 0.187 1.841-6.713-0.327-12.652-3.545-16.642-8.446-0.697 1.209-1.105 2.592-1.105 4.081 0 2.796 1.44 5.275 3.586 6.71-1.297-0.025-2.57-0.401-3.648-0.994 0 0.025 0 0.057 0 0.089 0 3.924 2.799 7.183 6.469 7.934-0.657 0.18-1.374 0.266-2.117 0.266-0.517 0-1.039-0.030-1.529-0.138 1.046 3.198 4.015 5.548 7.545 5.625-2.747 2.149-6.235 3.444-10.011 3.444-0.662 0-1.297-0.030-1.932-0.111 3.577 2.306 7.815 3.623 12.386 3.623 14.858 0 22.981-12.308 22.981-22.976 0-0.357-0.012-0.702-0.030-1.044 1.602-1.137 2.949-2.558 4.047-4.192z"></path>
</svg>
