<svg id="eJjUlzEZxwG1" xmlns="http://www.w3.org/2000/svg" xmlns:xlink="http://www.w3.org/1999/xlink" viewBox="0 0 35 35" shape-rendering="geometricPrecision" text-rendering="geometricPrecision"><ellipse rx="14.522285" ry="14.263729" transform="translate(17.930928 17.797341)" fill="#f53838" stroke-width="0"/><path d="M17.599988,0.580566c-9.388972,0-17.000012,7.611038-17.000012,17.000017s7.61104,16.999983,17.000012,16.999983s16.999988-7.611034,16.999988-16.999983-7.611036-17.000017-16.999988-17.000017ZM24.515037,14.50642c.007083.145208.008905.290416.008905.432083c0,4.427078-3.366403,9.528793-9.525357,9.528793-1.819909.003036-3.601872-.519612-5.131841-1.505206.260333.031875.527678.044321.798666.044321c1.568957,0,3.012135-.533071,4.157913-1.432653-.698213-.013661-1.374772-.244881-1.935367-.661381-.560595-.416398-.977196-.997433-1.191922-1.66195.501398.095321,1.017975.075387,1.510469-.058387-.757815-.153304-1.439332-.563934-1.928891-1.162273-.489661-.59844-.757208-1.347754-.75741-2.120849v-.040779c.451511.249737.968594.402029,1.517552.419737-.710458-.472964-1.213374-1.199511-1.405939-2.030891-.192566-.831481-.060209-1.705159.370053-2.442229.840993,1.034165,1.889933,1.880117,3.078718,2.483211s2.490903.949773,3.822164,1.017672c-.169191-.71835-.096333-1.472623.207238-2.145337s.820958-1.226326,1.471713-1.574725c.650654-.348297,1.398249-.471952,2.126415-.351636s1.396225.477821,1.900255,1.017064c.749416-.148244,1.467969-.423178,2.124998-.812862-.249738.775928-.772588,1.434677-1.471511,1.854111.663809-.07994,1.311934-.25844,1.923124-.529529-.448982.672714-1.014434,1.25982-1.669945,1.733695Z" fill="#fff"/></svg>
